<svg width="24" height="24" viewBox="0 0 24 24" fill="none" xmlns="http://www.w3.org/2000/svg">
<path fill-rule="evenodd" clip-rule="evenodd" d="M4.28006 3.21995C3.9872 2.92701 3.5124 2.92701 3.21955 3.21995C2.9267 3.51288 2.9267 3.98782 3.21955 4.28076L10.9369 12.0003L3.21998 19.7193C2.92713 20.0123 2.92713 20.4872 3.21998 20.7802C3.51283 21.0731 3.98764 21.0731 4.28049 20.7802L11.9974 13.0611L19.7142 20.7802C20.0071 21.0731 20.4819 21.0731 20.7747 20.7802C21.0676 20.4872 21.0676 20.0123 20.7747 19.7193L13.0579 12.0003L20.7752 4.28076C21.068 3.98782 21.068 3.51288 20.7752 3.21995C20.4823 2.92701 20.0075 2.92701 19.7147 3.21995L11.9974 10.9395L4.28006 3.21995Z" fill="white"/>
</svg>
